<svg xmlns="http://www.w3.org/2000/svg" viewBox="0 0 512 512" width="512" height="512"><defs><linearGradient id="g" x1="0" y1="0" x2="1" y2="1"><stop offset="0" stop-color="#2B3FB8"></stop><stop offset=".62" stop-color="#3D5AFE"></stop><stop offset="1" stop-color="#5872FF"></stop></linearGradient><linearGradient id="s" x1="0" y1="0" x2="0" y2="1"><stop offset="0" stop-color="#fff" stop-opacity=".18"></stop><stop offset=".55" stop-color="#fff" stop-opacity="0"></stop></linearGradient><clipPath id="c"><rect width="512" height="512" rx="116"></rect></clipPath></defs><g clip-path="url(#c)"><rect width="512" height="512" fill="url(#g)"></rect><rect width="512" height="512" fill="url(#s)"></rect><g><g fill="#fff"><path d="M148 398V236c0-6 3-11 8-14l72-44c7-4 16 1 16 10v210z" opacity=".72"></path><path d="M264 398V150c0-9 10-15 18-10l84 52c5 3 8 8 8 14v192z"></path><rect x="128" y="392" width="256" height="26" rx="13"></rect></g><g fill="#3D5AFE"><rect x="296" y="196" width="26" height="26" rx="6"></rect><rect x="296" y="252" width="26" height="26" rx="6"></rect><rect x="296" y="308" width="26" height="26" rx="6"></rect></g></g></g></svg>